# xmcd CD database file
#
# Track frame offsets:
#	182
#	13630
#	27280
#	38672
#	51312
#	65030
#	78540
#	91282
#	105635
#	121512
#	135790
#	149037
#	163967
#	177307
#	193000
#	206897
#	221627
#	234307
#
# Disc length: 3314 seconds
#
# Revision: 0
# Processed by: cddbd v1.4PL0 Copyright (c) Steve Scherf et al.
# Submitted via: CDex 1.50
#
DISCID=010cf012
DTITLE=Sonny Boy Williamson - Jazz Tribune
DYEAR=1973
DGENRE=Blues
TTITLE0=Sugar Mama Blues
TTITLE1=Skinny Woman
TTITLE2=Worried Me Blues
TTITLE3=Black Gal Blues
TTITLE4=Frigidaire Blues
TTITLE5=Suzanna Blues
TTITLE6=Early in the Morning
TTITLE7=My Little Cornelius
TTITLE8=Decoration Blues
TTITLE9=You Can Lead Me
TTITLE10=Miss Louisa Blues
TTITLE11=Sunnyland
TTITLE12=I'm Tired Trucking my Blues Away
TTITLE13=Beauty Parlor
TTITLE14=My Baby I've Been Your Slave
TTITLE15=Doggin' My Love Around
TTITLE16=Little Low Woman Blues
TTITLE17=Sugar Mama Blues  N°2
EXTD=YEAR: 1973
EXTT0=
EXTT1=
EXTT2=
EXTT3=
EXTT4=
EXTT5=
EXTT6=
EXTT7=
EXTT8=
EXTT9=
EXTT10=
EXTT11=
EXTT12=
EXTT13=
EXTT14=
EXTT15=
EXTT16=
EXTT17=
PLAYORDER=
